:SAMPLES-PER-SECOND 30
:FULLY-SPECIFIED
:DEGREES
224
root  -42.7999 33.4854 11.0185 -75.0728 86.8477 -114.634
RightUpLeg  -61.163 -4.63541 10.0367
RightLeg  25.3764 1.26171 0.496192
RightFoot  5.14794 0.0143788 0.188767
RightToes  -17.4952 -0.0634672 -0.156124
Spine  14.9877 0.787366 1.52736
Spine1  28.4376 1.30495 3.27845
HEad  -19.365 -3.69067 -4.4045
LeftShoulder1  -1.94126e-019 -3.10601e-018 -2.51263e-017
LeftArm  16.2801 -30.145 -84.8703
LeftForeArm  28.9499 -38.517 -6.93035
LeftHand  -0.691303 -2.13804 10.8528
RightShoulder  -4.96962e-017 0 -2.36833e-017
RightArm  8.74157 26.9192 73.2204
RightForeArm  55.6076 43.3928 6.76694
RightHand  -0.588514 -0.192353 -13.167
LeftUpLeg  -65.0535 14.1354 -3.27182
LeftLeg  37.02 8.7452 5.70576
LeftFoot  3.21061 -0.0141978 0.66815
LeftToes  -20.0684 1.83942e-006 5.51297e-008
225
root  -42.8709 33.238 11.0309 -55.8101 86.6905 -95.4812
RightUpLeg  -62.7405 -4.15456 10.4838
RightLeg  27.9578 2 0.893823
RightFoot  4.05609 0.0117041 0.192785
RightToes  -17.2328 -0.0628199 -0.154209
Spine  15.5465 0.690624 1.65292
Spine1  29.0396 0.88077 3.77344
HEad  -20.2563 -4.20543 -3.90814
LeftShoulder1  -1.94126e-019 -3.10601e-018 -2.51263e-017
LeftArm  16.8133 -34.7478 -84.9907
LeftForeArm  31.8966 -34.7698 -5.76584
LeftHand  -0.809826 -1.72142 13.3801
RightShoulder  -4.96962e-017 0 -2.36833e-017
RightArm  7.25091 31.3714 74.1179
RightForeArm  55.5793 40.0659 5.83197
RightHand  -0.568962 -0.737559 -14.1679
LeftUpLeg  -66.6389 14.7509 -3.078
LeftLeg  39.9928 8.902 6.48122
LeftFoot  1.96325 -0.00430046 0.412531
LeftToes  -20.2155 1.83942e-006 5.51297e-008
226
root  -42.9404 32.9696 11.0362 -40.7482 86.2684 -80.6005
RightUpLeg  -64.4325 -3.51818 10.7273
RightLeg  30.6588 2.4117 1.21636
RightFoot  2.91098 0.00918751 0.159401
RightToes  -16.7823 -0.0618371 -0.150461
Spine  16.1283 0.57258 1.68965
Spine1  29.7173 0.619052 3.7421
HEad  -21.3021 -4.01952 -3.19246
LeftShoulder1  -1.94126e-019 -3.10601e-018 -2.51263e-017
LeftArm  15.0115 -38.5795 -84.3871
LeftForeArm  32.5943 -31.9723 -5.05457
LeftHand  -0.767881 -1.32476 13.4188
RightShoulder  -4.96962e-017 0 -2.36833e-017
RightArm  5.48318 35.2552 75.724
RightForeArm  56.2352 38.0592 5.29074
RightHand  -0.512407 -1.2409 -14.2553
LeftUpLeg  -68.2278 15.2303 -2.86995
LeftLeg  42.8591 9.09546 7.33349
LeftFoot  0.705707 0.000121899 0.141751
LeftToes  -20.3488 1.83942e-006 5.51297e-008
227
root  -43.0158 32.7145 11.0285 -29.6666 85.5769 -69.8343
RightUpLeg  -66.1318 -2.99316 11.1841
RightLeg  33.1251 3.02409 1.69214
RightFoot  1.85004 0.00639539 0.121418
RightToes  -16.1338 -0.0603628 -0.145033
Spine  16.6522 0.551864 1.68998
Spine1  30.3648 0.649374 3.52952
HEad  -22.5958 -3.57942 -2.27341
LeftShoulder1  -1.94126e-019 -3.10601e-018 -2.51263e-017
LeftArm  11.803 -41.4243 -83.545
LeftForeArm  30.8865 -29.9681 -4.69023
LeftHand  -0.705202 -0.647308 13.6685
RightShoulder  -4.96962e-017 0 -2.36833e-017
RightArm  3.36093 38.5325 77.3455
RightForeArm  55.4631 36.3766 4.91923
RightHand  -0.452324 -1.86275 -14.7228
LeftUpLeg  -69.8454 15.7266 -2.62793
LeftLeg  45.4962 9.254 8.17843
LeftFoot  -0.357322 -0.000847397 -0.11019
LeftToes  -20.4078 1.83942e-006 5.51297e-008
228
root  -43.0834 32.4688 10.9992 -21.6883 85.0047 -62.1176
RightUpLeg  -67.896 -2.89248 11.6844
RightLeg  35.7667 3.83155 2.38191
RightFoot  0.900742 0.00355127 0.0639976
RightToes  -15.5856 -0.058241 -0.140416
Spine  17.1795 0.550388 1.61514
Spine1  31.0299 0.733692 3.2033
HEad  -24.0634 -3.1818 -0.962212
LeftShoulder1  -1.94126e-019 -3.10601e-018 -2.51263e-017
LeftArm  8.82088 -43.9081 -82.4804
LeftForeArm  27.6238 -28.5905 -4.56056
LeftHand  -0.627734 -0.0108331 13.5641
RightShoulder  -4.96962e-017 0 -2.36833e-017
RightArm  0.991593 41.2108 78.7967
RightForeArm  53.0491 35.0003 4.70888
RightHand  -0.420992 -2.19611 -15.0833
LeftUpLeg  -71.2994 16.0065 -2.48854
LeftLeg  47.9544 9.31966 8.96358
LeftFoot  -1.19175 -0.00516256 -0.334822
LeftToes  -20.7629 1.83942e-006 5.51297e-008
229
root  -43.167 32.2301 10.9429 -13.2376 84.4917 -54.1873
RightUpLeg  -69.9636 -2.82161 12.0274
RightLeg  38.3507 4.53636 3.11023
RightFoot  0.117711 0.000585618 -0.00853265
RightToes  -14.7641 -0.0542338 -0.13345
Spine  17.5579 0.541952 1.50425
Spine1  31.519 0.732496 2.96079
HEad  -25.8139 -3.0059 0.163356
LeftShoulder1  -1.94126e-019 -3.10601e-018 -2.51263e-017
LeftArm  6.94289 -46.5007 -81.1114
LeftForeArm  25.4931 -27.2434 -4.3816
LeftHand  -0.58791 0.381009 13.6688
RightShoulder  -4.96962e-017 0 -2.36833e-017
RightArm  -0.934959 43.5862 79.7121
RightForeArm  50.1382 33.8393 4.58042
RightHand  -0.374535 -2.5938 -15.2506
LeftUpLeg  -72.9268 16.1784 -2.6883
LeftLeg  50.1925 9.3834 9.74337
LeftFoot  -1.94963 -0.0120804 -0.548405
LeftToes  -21.1276 1.83942e-006 5.51297e-008
230
root  -43.2128 31.928 10.8735 -7.88239 83.9702 -48.6025
RightUpLeg  -71.4176 -2.92892 12.2953
RightLeg  41.2885 5.0165 3.82747
RightFoot  -0.967365 -0.00533302 -0.139204
RightToes  -14.0665 -0.0509651 -0.127489
Spine  18.046 0.539655 1.5229
Spine1  32.1966 0.699178 2.95537
HEad  -27.3846 -2.98198 1.08293
LeftShoulder1  -1.94126e-019 -3.10601e-018 -2.51263e-017
LeftArm  5.21806 -47.8209 -79.9209
LeftForeArm  24.8691 -26.6073 -4.27835
LeftHand  -0.596145 0.436333 14.009
RightShoulder  -4.96962e-017 0 -2.36833e-017
RightArm  -2.17461 45.2303 79.6892
RightForeArm  46.8208 33.0611 4.56548
RightHand  -0.299052 -3.17777 -15.2247
LeftUpLeg  -73.9521 16.2596 -2.58757
LeftLeg  52.8785 9.36493 10.6649
LeftFoot  -2.8755 -0.0248673 -0.829194
LeftToes  -21.5736 1.83942e-006 5.51297e-008
231
root  -43.2327 31.6079 10.7934 -3.97098 83.4582 -44.2241
RightUpLeg  -72.7089 -2.91438 12.2992
RightLeg  44.4128 5.18314 4.41566
RightFoot  -1.99869 -0.0134816 -0.27899
RightToes  -13.5226 -0.0483675 -0.122814
Spine  18.3572 0.574739 1.58071
Spine1  32.6576 0.766232 3.00373
HEad  -28.739 -2.8818 1.74771
LeftShoulder1  -1.94126e-019 -3.10601e-018 -2.51263e-017
LeftArm  4.48414 -48.4499 -78.9914
LeftForeArm  24.4571 -26.162 -4.20543
LeftHand  -0.563274 0.846462 14.3964
RightShoulder  -4.96962e-017 0 -2.36833e-017
RightArm  -3.03335 46.1918 79.0383
RightForeArm  45.4863 32.1892 4.43585
RightHand  -0.304426 -3.12011 -15.1196
LeftUpLeg  -74.8497 16.1587 -2.24763
LeftLeg  55.8545 9.33863 11.7936
LeftFoot  -3.27896 -0.0333492 -1.00355
LeftToes  -22.3435 1.83942e-006 5.51297e-008
232
root  -43.2249 31.2703 10.7218 -1.04623 83.0214 -40.5384
RightUpLeg  -73.5768 -2.70274 11.9692
RightLeg  47.3184 4.90605 4.62231
RightFoot  -3.09976 -0.0244338 -0.406488
RightToes  -12.637 -0.0461227 -0.11515
Spine  18.5097 0.632674 1.65297
Spine1  32.9177 0.960935 2.98561
HEad  -29.6712 -2.75144 2.36135
LeftShoulder1  -1.94126e-019 -3.10601e-018 -2.51263e-017
LeftArm  4.56405 -48.635 -78.6162
LeftForeArm  24.5622 -25.3548 -4.0297
LeftHand  -0.570096 0.715006 14.1726
RightShoulder  -4.96962e-017 0 -2.36833e-017
RightArm  -3.54621 46.5796 78.0769
RightForeArm  46.1773 31.0405 4.14929
RightHand  -0.344158 -2.72688 -14.6651
LeftUpLeg  -75.6933 15.9171 -1.6829
LeftLeg  59.2932 9.08991 12.9858
LeftFoot  -2.80901 -0.0269925 -0.939316
LeftToes  -24.3973 1.83942e-006 5.51297e-008
233
root  -43.194 30.947 10.6505 1.28543 82.5046 -37.1706
RightUpLeg  -73.9782 -2.73686 11.8248
RightLeg  49.9551 4.90214 5.05815
RightFoot  -4.20226 -0.0387694 -0.560941
RightToes  -12.2149 -0.0440684 -0.111476
Spine  18.5225 0.720536 1.68739
Spine1  32.9566 1.24263 2.90057
HEad  -30.0559 -2.92112 2.84867
LeftShoulder1  -1.94126e-019 -3.10601e-018 -2.51263e-017
LeftArm  5.37779 -48.5485 -78.7564
LeftForeArm  24.9851 -23.9701 -3.72107
LeftHand  -0.566438 0.565788 13.6596
RightShoulder  -4.96962e-017 0 -2.36833e-017
RightArm  -3.55814 46.5192 77.0279
RightForeArm  47.1022 29.2661 3.72656
RightHand  -0.370506 -2.44818 -14.3475
LeftUpLeg  -76.3383 15.8678 -1.13033
LeftLeg  62.7651 8.53187 13.8998
LeftFoot  -1.80845 -0.0134782 -0.692377
LeftToes  -27.7567 1.83942e-006 5.51297e-008
234
root  -43.106 30.623 10.5808 2.27646 81.9355 -34.445
RightUpLeg  -73.5868 -2.93416 11.641
RightLeg  52.5813 4.96887 5.61457
RightFoot  -5.28839 -0.0573307 -0.748168
RightToes  -12.2534 -0.0428408 -0.110757
Spine  18.6117 0.808828 1.62814
Spine1  33.1052 1.49506 2.72235
HEad  -29.8634 -2.95047 3.25933
LeftShoulder1  -1.94126e-019 -3.10601e-018 -2.51263e-017
LeftArm  7.23681 -48.3585 -78.9056
LeftForeArm  25.0788 -22.2483 -3.36859
LeftHand  -0.558429 0.361802 12.9386
RightShoulder  -4.96962e-017 0 -2.36833e-017
RightArm  -3.33714 46.1026 76.1875
RightForeArm  47.4862 26.8276 3.20843
RightHand  -0.377832 -2.33221 -14.0941
LeftUpLeg  -76.0838 15.9641 -0.496959
LeftLeg  65.9986 7.92958 14.7171
LeftFoot  -1.05172 -0.00619225 -0.513058
LeftToes  -30.8947 1.83942e-006 5.51297e-008
